{
    "asset" : {
        "generator" : "Khronos glTF Blender I/O v1.8.19",
        "version" : "2.0"
    },
    "scene" : 0,
    "scenes" : [
        {
            "name" : "Scene",
            "nodes" : [
                0
            ]
        }
    ],
    "nodes" : [
        {
            "mesh" : 0,
            "name" : "Curve"
        }
    ],
    "materials" : [
        {
            "doubleSided" : true,
            "name" : "SVGMat.001",
            "pbrMetallicRoughness" : {
                "baseColorFactor" : [
                    0.8713670969009399,
                    0.08228270709514618,
                    0.03310476616024971,
                    1
                ],
                "metallicFactor" : 0,
                "roughnessFactor" : 0.4000000059604645
            }
        }
    ],
    "meshes" : [
        {
            "name" : "Curve",
            "primitives" : [
                {
                    "attributes" : {
                        "POSITION" : 0,
                        "NORMAL" : 1,
                        "TEXCOORD_0" : 2
                    },
                    "indices" : 3,
                    "material" : 0
                }
            ]
        }
    ],
    "accessors" : [
        {
            "bufferView" : 0,
            "componentType" : 5126,
            "count" : 1946,
            "max" : [
                2.0529749393463135,
                0.10000000149011612,
                -0.05554424226284027
            ],
            "min" : [
                0.05553427338600159,
                -0.10000000149011612,
                -2.0525195598602295
            ],
            "type" : "VEC3"
        },
        {
            "bufferView" : 1,
            "componentType" : 5126,
            "count" : 1946,
            "type" : "VEC3"
        },
        {
            "bufferView" : 2,
            "componentType" : 5126,
            "count" : 1946,
            "type" : "VEC2"
        },
        {
            "bufferView" : 3,
            "componentType" : 5123,
            "count" : 3492,
            "type" : "SCALAR"
        }
    ],
    "bufferViews" : [
        {
            "buffer" : 0,
            "byteLength" : 23352,
            "byteOffset" : 0
        },
        {
            "buffer" : 0,
            "byteLength" : 23352,
            "byteOffset" : 23352
        },
        {
            "buffer" : 0,
            "byteLength" : 15568,
            "byteOffset" : 46704
        },
        {
            "buffer" : 0,
            "byteLength" : 6984,
            "byteOffset" : 62272
        }
    ],
    "buffers" : [
        {
            "byteLength" : 69256,
            "uri" : "data:application/octet-stream;base64,"
        }
    ]
}
