{
    "asset" : {
        "generator" : "Khronos glTF Blender I/O v1.8.19",
        "version" : "2.0"
    },
    "scene" : 0,
    "scenes" : [
        {
            "name" : "Scene",
            "nodes" : [
                0,
                1,
                2,
                3,
                4,
                5,
                6,
                7,
                8
            ]
        }
    ],
    "nodes" : [
        {
            "mesh" : 0,
            "name" : "Curve",
            "scale" : [
                1,
                1.6283997297286987,
                1
            ],
            "translation" : [
                0.35212242603302,
                0,
                -0.32261961698532104
            ]
        },
        {
            "mesh" : 1,
            "name" : "Curve.001",
            "scale" : [
                1,
                1.1880675554275513,
                1
            ],
            "translation" : [
                0.028354108333587646,
                0,
                0.03014964610338211
            ]
        },
        {
            "mesh" : 2,
            "name" : "Curve.003",
            "scale" : [
                1,
                0.647972047328949,
                1
            ],
            "translation" : [
                -0.16644549369812012,
                0,
                0.1265912652015686
            ]
        },
        {
            "mesh" : 3,
            "name" : "Curve.004",
            "scale" : [
                1,
                0.27044397592544556,
                1
            ],
            "translation" : [
                -0.048941195011138916,
                0,
                0.10390723496675491
            ]
        },
        {
            "mesh" : 4,
            "name" : "Curve.005",
            "translation" : [
                0.11043858528137207,
                0,
                -0.41561299562454224
            ]
        },
        {
            "mesh" : 5,
            "name" : "Curve.012",
            "scale" : [
                1,
                0.24656061828136444,
                1
            ],
            "translation" : [
                -0.018539071083068848,
                0,
                0.06776923686265945
            ]
        },
        {
            "mesh" : 6,
            "name" : "Curve.013",
            "scale" : [
                1,
                0.3326053321361542,
                1
            ],
            "translation" : [
                0.03254908323287964,
                0,
                0.0025789812207221985
            ]
        },
        {
            "mesh" : 7,
            "name" : "Curve.014",
            "scale" : [
                1,
                0.3123844563961029,
                1
            ],
            "translation" : [
                -0.16489559412002563,
                0,
                0.22428148984909058
            ]
        },
        {
            "mesh" : 8,
            "name" : "Curve.015",
            "scale" : [
                1,
                0.21073557436466217,
                1
            ],
            "translation" : [
                -0.12464284896850586,
                0,
                0.18295472860336304
            ]
        }
    ],
    "materials" : [
        {
            "doubleSided" : true,
            "name" : "SVGMat.018",
            "pbrMetallicRoughness" : {
                "baseColorFactor" : [
                    0.03688944876194,
                    0.05951123684644699,
                    0.06480326503515244,
                    1
                ],
                "metallicFactor" : 0,
                "roughnessFactor" : 0.4000000059604645
            }
        },
        {
            "doubleSided" : true,
            "name" : "SVGMat.019",
            "pbrMetallicRoughness" : {
                "baseColorFactor" : [
                    0.01599629409611225,
                    0.35153260827064514,
                    0.577580451965332,
                    1
                ],
                "metallicFactor" : 0,
                "roughnessFactor" : 0.4000000059604645
            }
        },
        {
            "doubleSided" : true,
            "name" : "SVGMat.021",
            "pbrMetallicRoughness" : {
                "baseColorFactor" : [
                    0.010960093699395657,
                    0.21952620148658752,
                    0.3762621283531189,
                    1
                ],
                "metallicFactor" : 0,
                "roughnessFactor" : 0.4000000059604645
            }
        },
        {
            "doubleSided" : true,
            "name" : "SVGMat.022",
            "pbrMetallicRoughness" : {
                "baseColorFactor" : [
                    0.012286487966775894,
                    0.28314873576164246,
                    0.4564110338687897,
                    1
                ],
                "metallicFactor" : 0,
                "roughnessFactor" : 0.4000000059604645
            }
        },
        {
            "doubleSided" : true,
            "name" : "SVGMat.023",
            "pbrMetallicRoughness" : {
                "baseColorFactor" : [
                    0.016807375475764275,
                    0.366252601146698,
                    0.5394794940948486,
                    1
                ],
                "metallicFactor" : 0,
                "roughnessFactor" : 0.4000000059604645
            }
        },
        {
            "doubleSided" : true,
            "name" : "SVGMat.030",
            "pbrMetallicRoughness" : {
                "baseColorFactor" : [
                    0.6514056324958801,
                    0.838798999786377,
                    0.838798999786377,
                    1
                ],
                "metallicFactor" : 0,
                "roughnessFactor" : 0.4000000059604645
            }
        },
        {
            "doubleSided" : true,
            "name" : "SVGMat.031",
            "pbrMetallicRoughness" : {
                "baseColorFactor" : [
                    0.03688944876194,
                    0.05951123684644699,
                    0.06480326503515244,
                    1
                ],
                "metallicFactor" : 0,
                "roughnessFactor" : 0.4000000059604645
            }
        },
        {
            "doubleSided" : true,
            "name" : "SVGMat.032",
            "pbrMetallicRoughness" : {
                "baseColorFactor" : [
                    0.5088813304901123,
                    0.6938717365264893,
                    0.6795424818992615,
                    1
                ],
                "metallicFactor" : 0,
                "roughnessFactor" : 0.4000000059604645
            }
        },
        {
            "doubleSided" : true,
            "name" : "SVGMat.033",
            "pbrMetallicRoughness" : {
                "baseColorFactor" : [
                    0.6514056324958801,
                    0.838798999786377,
                    0.838798999786377,
                    1
                ],
                "metallicFactor" : 0,
                "roughnessFactor" : 0.4000000059604645
            }
        }
    ],
    "meshes" : [
        {
            "name" : "Curve.016",
            "primitives" : [
                {
                    "attributes" : {
                        "POSITION" : 0,
                        "NORMAL" : 1,
                        "TEXCOORD_0" : 2
                    },
                    "indices" : 3,
                    "material" : 0
                }
            ]
        },
        {
            "name" : "Curve.017",
            "primitives" : [
                {
                    "attributes" : {
                        "POSITION" : 4,
                        "NORMAL" : 5,
                        "TEXCOORD_0" : 6
                    },
                    "indices" : 7,
                    "material" : 1
                }
            ]
        },
        {
            "name" : "Curve.019",
            "primitives" : [
                {
                    "attributes" : {
                        "POSITION" : 8,
                        "NORMAL" : 9,
                        "TEXCOORD_0" : 10
                    },
                    "indices" : 11,
                    "material" : 2
                }
            ]
        },
        {
            "name" : "Curve.020",
            "primitives" : [
                {
                    "attributes" : {
                        "POSITION" : 12,
                        "NORMAL" : 13,
                        "TEXCOORD_0" : 14
                    },
                    "indices" : 15,
                    "material" : 3
                }
            ]
        },
        {
            "name" : "Curve.021",
            "primitives" : [
                {
                    "attributes" : {
                        "POSITION" : 16,
                        "NORMAL" : 17,
                        "TEXCOORD_0" : 18
                    },
                    "indices" : 19,
                    "material" : 4
                }
            ]
        },
        {
            "name" : "Curve.028",
            "primitives" : [
                {
                    "attributes" : {
                        "POSITION" : 20,
                        "NORMAL" : 21,
                        "TEXCOORD_0" : 22
                    },
                    "indices" : 23,
                    "material" : 5
                }
            ]
        },
        {
            "name" : "Curve.029",
            "primitives" : [
                {
                    "attributes" : {
                        "POSITION" : 24,
                        "NORMAL" : 25,
                        "TEXCOORD_0" : 26
                    },
                    "indices" : 27,
                    "material" : 6
                }
            ]
        },
        {
            "name" : "Curve.030",
            "primitives" : [
                {
                    "attributes" : {
                        "POSITION" : 28,
                        "NORMAL" : 29,
                        "TEXCOORD_0" : 30
                    },
                    "indices" : 31,
                    "material" : 7
                }
            ]
        },
        {
            "name" : "Curve.031",
            "primitives" : [
                {
                    "attributes" : {
                        "POSITION" : 32,
                        "NORMAL" : 33,
                        "TEXCOORD_0" : 34
                    },
                    "indices" : 35,
                    "material" : 8
                }
            ]
        }
    ],
    "accessors" : [
        {
            "bufferView" : 0,
            "componentType" : 5126,
            "count" : 1186,
            "max" : [
                0.8767243027687073,
                0.06154008209705353,
                0.6893620491027832
            ],
            "min" : [
                -0.8909173011779785,
                -0.06154008209705353,
                -0.4542395770549774
            ],
            "type" : "VEC3"
        },
        {
            "bufferView" : 1,
            "componentType" : 5126,
            "count" : 1186,
            "type" : "VEC3"
        },
        {
            "bufferView" : 2,
            "componentType" : 5126,
            "count" : 1186,
            "type" : "VEC2"
        },
        {
            "bufferView" : 3,
            "componentType" : 5123,
            "count" : 2172,
            "type" : "SCALAR"
        },
        {
            "bufferView" : 4,
            "componentType" : 5126,
            "count" : 1876,
            "max" : [
                1.1606453657150269,
                0.08837880939245224,
                0.306490033864975
            ],
            "min" : [
                -0.5371044278144836,
                -0.08837880939245224,
                -0.5806815028190613
            ],
            "type" : "VEC3"
        },
        {
            "bufferView" : 5,
            "componentType" : 5126,
            "count" : 1876,
            "type" : "VEC3"
        },
        {
            "bufferView" : 6,
            "componentType" : 5126,
            "count" : 1876,
            "type" : "VEC2"
        },
        {
            "bufferView" : 7,
            "componentType" : 5123,
            "count" : 3684,
            "type" : "SCALAR"
        },
        {
            "bufferView" : 8,
            "componentType" : 5126,
            "count" : 430,
            "max" : [
                1.0235552787780762,
                0.16976040601730347,
                0.21004849672317505
            ],
            "min" : [
                -0.3377143442630768,
                -0.16976040601730347,
                -0.20707155764102936
            ],
            "type" : "VEC3"
        },
        {
            "bufferView" : 9,
            "componentType" : 5126,
            "count" : 430,
            "type" : "VEC3"
        },
        {
            "bufferView" : 10,
            "componentType" : 5126,
            "count" : 430,
            "type" : "VEC2"
        },
        {
            "bufferView" : 11,
            "componentType" : 5123,
            "count" : 1284,
            "type" : "SCALAR"
        },
        {
            "bufferView" : 12,
            "componentType" : 5126,
            "count" : 848,
            "max" : [
                0.7527273893356323,
                0.4067385792732239,
                0.10861007124185562
            ],
            "min" : [
                -0.3784306049346924,
                -0.4067385792732239,
                -0.18438753485679626
            ],
            "type" : "VEC3"
        },
        {
            "bufferView" : 13,
            "componentType" : 5126,
            "count" : 848,
            "type" : "VEC3"
        },
        {
            "bufferView" : 14,
            "componentType" : 5126,
            "count" : 848,
            "type" : "VEC2"
        },
        {
            "bufferView" : 15,
            "componentType" : 5123,
            "count" : 1692,
            "type" : "SCALAR"
        },
        {
            "bufferView" : 16,
            "componentType" : 5126,
            "count" : 1553,
            "max" : [
                0.41928309202194214,
                0.11298289895057678,
                0.18647798895835876
            ],
            "min" : [
                -0.45967212319374084,
                -0.11298289895057678,
                -0.33115914463996887
            ],
            "type" : "VEC3"
        },
        {
            "bufferView" : 17,
            "componentType" : 5126,
            "count" : 1553,
            "type" : "VEC3"
        },
        {
            "bufferView" : 18,
            "componentType" : 5126,
            "count" : 1553,
            "type" : "VEC2"
        },
        {
            "bufferView" : 19,
            "componentType" : 5123,
            "count" : 3660,
            "type" : "SCALAR"
        },
        {
            "bufferView" : 20,
            "componentType" : 5126,
            "count" : 748,
            "max" : [
                0.040410712361335754,
                0.47452834248542786,
                0.04317469894886017
            ],
            "min" : [
                -0.04596596211194992,
                -0.47452834248542786,
                -0.04317586123943329
            ],
            "type" : "VEC3"
        },
        {
            "bufferView" : 21,
            "componentType" : 5126,
            "count" : 748,
            "type" : "VEC3"
        },
        {
            "bufferView" : 22,
            "componentType" : 5126,
            "count" : 748,
            "type" : "VEC2"
        },
        {
            "bufferView" : 23,
            "componentType" : 5123,
            "count" : 1284,
            "type" : "SCALAR"
        },
        {
            "bufferView" : 24,
            "componentType" : 5126,
            "count" : 1922,
            "max" : [
                1.1905242204666138,
                0.46601778268814087,
                0.09608716517686844
            ],
            "min" : [
                -0.8182464838027954,
                -0.46601778268814087,
                -0.1508447229862213
            ],
            "type" : "VEC3"
        },
        {
            "bufferView" : 25,
            "componentType" : 5126,
            "count" : 1922,
            "type" : "VEC3"
        },
        {
            "bufferView" : 26,
            "componentType" : 5126,
            "count" : 1922,
            "type" : "VEC2"
        },
        {
            "bufferView" : 27,
            "componentType" : 5123,
            "count" : 2916,
            "type" : "SCALAR"
        },
        {
            "bufferView" : 28,
            "componentType" : 5126,
            "count" : 492,
            "max" : [
                0.25778985023498535,
                0.3841420114040375,
                0.1123582050204277
            ],
            "min" : [
                -0.23348131775856018,
                -0.3841420114040375,
                -0.08357483893632889
            ],
            "type" : "VEC3"
        },
        {
            "bufferView" : 29,
            "componentType" : 5126,
            "count" : 492,
            "type" : "VEC3"
        },
        {
            "bufferView" : 30,
            "componentType" : 5126,
            "count" : 492,
            "type" : "VEC2"
        },
        {
            "bufferView" : 31,
            "componentType" : 5123,
            "count" : 852,
            "type" : "SCALAR"
        },
        {
            "bufferView" : 32,
            "componentType" : 5126,
            "count" : 244,
            "max" : [
                0.0589672327041626,
                0.47452834248542786,
                0.02722727321088314
            ],
            "min" : [
                -0.1237202063202858,
                -0.47452834248542786,
                -0.042263876646757126
            ],
            "type" : "VEC3"
        },
        {
            "bufferView" : 33,
            "componentType" : 5126,
            "count" : 244,
            "type" : "VEC3"
        },
        {
            "bufferView" : 34,
            "componentType" : 5126,
            "count" : 244,
            "type" : "VEC2"
        },
        {
            "bufferView" : 35,
            "componentType" : 5123,
            "count" : 468,
            "type" : "SCALAR"
        }
    ],
    "bufferViews" : [
        {
            "buffer" : 0,
            "byteLength" : 14232,
            "byteOffset" : 0
        },
        {
            "buffer" : 0,
            "byteLength" : 14232,
            "byteOffset" : 14232
        },
        {
            "buffer" : 0,
            "byteLength" : 9488,
            "byteOffset" : 28464
        },
        {
            "buffer" : 0,
            "byteLength" : 4344,
            "byteOffset" : 37952
        },
        {
            "buffer" : 0,
            "byteLength" : 22512,
            "byteOffset" : 42296
        },
        {
            "buffer" : 0,
            "byteLength" : 22512,
            "byteOffset" : 64808
        },
        {
            "buffer" : 0,
            "byteLength" : 15008,
            "byteOffset" : 87320
        },
        {
            "buffer" : 0,
            "byteLength" : 7368,
            "byteOffset" : 102328
        },
        {
            "buffer" : 0,
            "byteLength" : 5160,
            "byteOffset" : 109696
        },
        {
            "buffer" : 0,
            "byteLength" : 5160,
            "byteOffset" : 114856
        },
        {
            "buffer" : 0,
            "byteLength" : 3440,
            "byteOffset" : 120016
        },
        {
            "buffer" : 0,
            "byteLength" : 2568,
            "byteOffset" : 123456
        },
        {
            "buffer" : 0,
            "byteLength" : 10176,
            "byteOffset" : 126024
        },
        {
            "buffer" : 0,
            "byteLength" : 10176,
            "byteOffset" : 136200
        },
        {
            "buffer" : 0,
            "byteLength" : 6784,
            "byteOffset" : 146376
        },
        {
            "buffer" : 0,
            "byteLength" : 3384,
            "byteOffset" : 153160
        },
        {
            "buffer" : 0,
            "byteLength" : 18636,
            "byteOffset" : 156544
        },
        {
            "buffer" : 0,
            "byteLength" : 18636,
            "byteOffset" : 175180
        },
        {
            "buffer" : 0,
            "byteLength" : 12424,
            "byteOffset" : 193816
        },
        {
            "buffer" : 0,
            "byteLength" : 7320,
            "byteOffset" : 206240
        },
        {
            "buffer" : 0,
            "byteLength" : 8976,
            "byteOffset" : 213560
        },
        {
            "buffer" : 0,
            "byteLength" : 8976,
            "byteOffset" : 222536
        },
        {
            "buffer" : 0,
            "byteLength" : 5984,
            "byteOffset" : 231512
        },
        {
            "buffer" : 0,
            "byteLength" : 2568,
            "byteOffset" : 237496
        },
        {
            "buffer" : 0,
            "byteLength" : 23064,
            "byteOffset" : 240064
        },
        {
            "buffer" : 0,
            "byteLength" : 23064,
            "byteOffset" : 263128
        },
        {
            "buffer" : 0,
            "byteLength" : 15376,
            "byteOffset" : 286192
        },
        {
            "buffer" : 0,
            "byteLength" : 5832,
            "byteOffset" : 301568
        },
        {
            "buffer" : 0,
            "byteLength" : 5904,
            "byteOffset" : 307400
        },
        {
            "buffer" : 0,
            "byteLength" : 5904,
            "byteOffset" : 313304
        },
        {
            "buffer" : 0,
            "byteLength" : 3936,
            "byteOffset" : 319208
        },
        {
            "buffer" : 0,
            "byteLength" : 1704,
            "byteOffset" : 323144
        },
        {
            "buffer" : 0,
            "byteLength" : 2928,
            "byteOffset" : 324848
        },
        {
            "buffer" : 0,
            "byteLength" : 2928,
            "byteOffset" : 327776
        },
        {
            "buffer" : 0,
            "byteLength" : 1952,
            "byteOffset" : 330704
        },
        {
            "buffer" : 0,
            "byteLength" : 936,
            "byteOffset" : 332656
        }
    ],
    "buffers" : [
        {
            "byteLength" : 333592,
            "uri" : "data:application/octet-stream;base64,"
        }
    ]
}
