{
    "asset" : {
        "generator" : "Khronos glTF Blender I/O v1.8.19",
        "version" : "2.0"
    },
    "scene" : 0,
    "scenes" : [
        {
            "name" : "Scene",
            "nodes" : [
                0,
                1,
                2,
                3
            ]
        }
    ],
    "nodes" : [
        {
            "mesh" : 0,
            "name" : "Curve",
            "translation" : [
                -0.00403362512588501,
                0,
                -0.007825851440429688
            ]
        },
        {
            "mesh" : 1,
            "name" : "Curve.001",
            "translation" : [
                0.3160284757614136,
                0,
                0.009612560272216797
            ]
        },
        {
            "mesh" : 2,
            "name" : "Curve.002",
            "scale" : [
                1,
                0.7142857313156128,
                1
            ],
            "translation" : [
                -0.2687554359436035,
                0,
                0.017737746238708496
            ]
        },
        {
            "mesh" : 3,
            "name" : "Curve.003",
            "scale" : [
                1,
                0.8571429252624512,
                1
            ],
            "translation" : [
                0.2520155906677246,
                0,
                0.025534987449645996
            ]
        }
    ],
    "materials" : [
        {
            "doubleSided" : true,
            "name" : "SVGMat.001",
            "pbrMetallicRoughness" : {
                "baseColorFactor" : [
                    0.7681511640548706,
                    0.07818742096424103,
                    0.019382361322641373,
                    1
                ],
                "metallicFactor" : 0,
                "roughnessFactor" : 0.4000000059604645
            }
        },
        {
            "doubleSided" : true,
            "name" : "SVGMat.002",
            "pbrMetallicRoughness" : {
                "baseColorFactor" : [
                    0.8631572127342224,
                    0.13013647496700287,
                    0.023153366521000862,
                    1
                ],
                "metallicFactor" : 0,
                "roughnessFactor" : 0.4000000059604645
            }
        },
        {
            "doubleSided" : true,
            "name" : "SVGMat.003",
            "pbrMetallicRoughness" : {
                "baseColorFactor" : [
                    0.8307698965072632,
                    0.8307698965072632,
                    0.8307698965072632,
                    1
                ],
                "metallicFactor" : 0,
                "roughnessFactor" : 0.4000000059604645
            }
        },
        {
            "doubleSided" : true,
            "name" : "SVGMat.004",
            "pbrMetallicRoughness" : {
                "baseColorFactor" : [
                    1,
                    1,
                    1,
                    1
                ],
                "metallicFactor" : 0,
                "roughnessFactor" : 0.4000000059604645
            }
        }
    ],
    "meshes" : [
        {
            "name" : "Curve",
            "primitives" : [
                {
                    "attributes" : {
                        "POSITION" : 0,
                        "NORMAL" : 1,
                        "TEXCOORD_0" : 2
                    },
                    "indices" : 3,
                    "material" : 0
                }
            ]
        },
        {
            "name" : "Curve.001",
            "primitives" : [
                {
                    "attributes" : {
                        "POSITION" : 4,
                        "NORMAL" : 5,
                        "TEXCOORD_0" : 6
                    },
                    "indices" : 7,
                    "material" : 1
                }
            ]
        },
        {
            "name" : "Curve.002",
            "primitives" : [
                {
                    "attributes" : {
                        "POSITION" : 8,
                        "NORMAL" : 9,
                        "TEXCOORD_0" : 10
                    },
                    "indices" : 11,
                    "material" : 2
                }
            ]
        },
        {
            "name" : "Curve.003",
            "primitives" : [
                {
                    "attributes" : {
                        "POSITION" : 12,
                        "NORMAL" : 13,
                        "TEXCOORD_0" : 14
                    },
                    "indices" : 15,
                    "material" : 3
                }
            ]
        }
    ],
    "accessors" : [
        {
            "bufferView" : 0,
            "componentType" : 5126,
            "count" : 26,
            "max" : [
                0.8794880509376526,
                0.09999999403953552,
                1.0870184898376465
            ],
            "min" : [
                -0.8794307708740234,
                -0.09999999403953552,
                -0.9093811511993408
            ],
            "type" : "VEC3"
        },
        {
            "bufferView" : 1,
            "componentType" : 5126,
            "count" : 26,
            "type" : "VEC3"
        },
        {
            "bufferView" : 2,
            "componentType" : 5126,
            "count" : 26,
            "type" : "VEC2"
        },
        {
            "bufferView" : 3,
            "componentType" : 5123,
            "count" : 48,
            "type" : "SCALAR"
        },
        {
            "bufferView" : 4,
            "componentType" : 5126,
            "count" : 18,
            "max" : [
                0.3995242118835449,
                0.125,
                0.9136113524436951
            ],
            "min" : [
                -0.3180834650993347,
                -0.125,
                -0.7825484275817871
            ],
            "type" : "VEC3"
        },
        {
            "bufferView" : 5,
            "componentType" : 5126,
            "count" : 18,
            "type" : "VEC3"
        },
        {
            "bufferView" : 6,
            "componentType" : 5126,
            "count" : 18,
            "type" : "VEC2"
        },
        {
            "bufferView" : 7,
            "componentType" : 5123,
            "count" : 36,
            "type" : "SCALAR"
        },
        {
            "bufferView" : 8,
            "componentType" : 5126,
            "count" : 92,
            "max" : [
                0.2667004466056824,
                0.17499999701976776,
                0.6793315410614014
            ],
            "min" : [
                -0.2871054410934448,
                -0.17499999701976776,
                -0.5684182643890381
            ],
            "type" : "VEC3"
        },
        {
            "bufferView" : 9,
            "componentType" : 5126,
            "count" : 92,
            "type" : "VEC3"
        },
        {
            "bufferView" : 10,
            "componentType" : 5126,
            "count" : 92,
            "type" : "VEC2"
        },
        {
            "bufferView" : 11,
            "componentType" : 5123,
            "count" : 204,
            "type" : "SCALAR"
        },
        {
            "bufferView" : 12,
            "componentType" : 5126,
            "count" : 112,
            "max" : [
                0.29583537578582764,
                0.17499999701976776,
                0.6715342998504639
            ],
            "min" : [
                -0.25797057151794434,
                -0.17499999701976776,
                -0.5762155055999756
            ],
            "type" : "VEC3"
        },
        {
            "bufferView" : 13,
            "componentType" : 5126,
            "count" : 112,
            "type" : "VEC3"
        },
        {
            "bufferView" : 14,
            "componentType" : 5126,
            "count" : 112,
            "type" : "VEC2"
        },
        {
            "bufferView" : 15,
            "componentType" : 5123,
            "count" : 192,
            "type" : "SCALAR"
        }
    ],
    "bufferViews" : [
        {
            "buffer" : 0,
            "byteLength" : 312,
            "byteOffset" : 0
        },
        {
            "buffer" : 0,
            "byteLength" : 312,
            "byteOffset" : 312
        },
        {
            "buffer" : 0,
            "byteLength" : 208,
            "byteOffset" : 624
        },
        {
            "buffer" : 0,
            "byteLength" : 96,
            "byteOffset" : 832
        },
        {
            "buffer" : 0,
            "byteLength" : 216,
            "byteOffset" : 928
        },
        {
            "buffer" : 0,
            "byteLength" : 216,
            "byteOffset" : 1144
        },
        {
            "buffer" : 0,
            "byteLength" : 144,
            "byteOffset" : 1360
        },
        {
            "buffer" : 0,
            "byteLength" : 72,
            "byteOffset" : 1504
        },
        {
            "buffer" : 0,
            "byteLength" : 1104,
            "byteOffset" : 1576
        },
        {
            "buffer" : 0,
            "byteLength" : 1104,
            "byteOffset" : 2680
        },
        {
            "buffer" : 0,
            "byteLength" : 736,
            "byteOffset" : 3784
        },
        {
            "buffer" : 0,
            "byteLength" : 408,
            "byteOffset" : 4520
        },
        {
            "buffer" : 0,
            "byteLength" : 1344,
            "byteOffset" : 4928
        },
        {
            "buffer" : 0,
            "byteLength" : 1344,
            "byteOffset" : 6272
        },
        {
            "buffer" : 0,
            "byteLength" : 896,
            "byteOffset" : 7616
        },
        {
            "buffer" : 0,
            "byteLength" : 384,
            "byteOffset" : 8512
        }
    ],
    "buffers" : [
        {
            "byteLength" : 8896,
            "uri" : "data:application/octet-stream;base64,"
        }
    ]
}
