{
    "asset" : {
        "generator" : "Khronos glTF Blender I/O v1.8.19",
        "version" : "2.0"
    },
    "scene" : 0,
    "scenes" : [
        {
            "name" : "Scene",
            "nodes" : [
                0,
                1
            ]
        }
    ],
    "nodes" : [
        {
            "mesh" : 0,
            "name" : "Curve",
            "translation" : [
                -0.0064463019371032715,
                0,
                0.3996858298778534
            ]
        },
        {
            "mesh" : 1,
            "name" : "Curve.002",
            "translation" : [
                0.006446361541748047,
                0,
                -0.399685800075531
            ]
        }
    ],
    "materials" : [
        {
            "doubleSided" : true,
            "name" : "SVGMat.001",
            "pbrMetallicRoughness" : {
                "baseColorFactor" : [
                    0.08650045841932297,
                    0.22322796285152435,
                    0.35640013217926025,
                    1
                ],
                "metallicFactor" : 0,
                "roughnessFactor" : 0.4000000059604645
            }
        },
        {
            "doubleSided" : true,
            "name" : "SVGMat.003",
            "pbrMetallicRoughness" : {
                "baseColorFactor" : [
                    0.7991027235984802,
                    0.15896083414554596,
                    0,
                    1
                ],
                "metallicFactor" : 0,
                "roughnessFactor" : 0.4000000059604645
            }
        }
    ],
    "meshes" : [
        {
            "name" : "Curve",
            "primitives" : [
                {
                    "attributes" : {
                        "POSITION" : 0,
                        "NORMAL" : 1,
                        "TEXCOORD_0" : 2
                    },
                    "indices" : 3,
                    "material" : 0
                }
            ]
        },
        {
            "name" : "Curve.002",
            "primitives" : [
                {
                    "attributes" : {
                        "POSITION" : 4,
                        "NORMAL" : 5,
                        "TEXCOORD_0" : 6
                    },
                    "indices" : 7,
                    "material" : 1
                }
            ]
        }
    ],
    "accessors" : [
        {
            "bufferView" : 0,
            "componentType" : 5126,
            "count" : 2420,
            "max" : [
                0.6777434945106506,
                0.09917886555194855,
                0.4883677065372467
            ],
            "min" : [
                -0.7877506613731384,
                -0.09917886555194855,
                -0.4231886565685272
            ],
            "type" : "VEC3"
        },
        {
            "bufferView" : 1,
            "componentType" : 5126,
            "count" : 2420,
            "type" : "VEC3"
        },
        {
            "bufferView" : 2,
            "componentType" : 5126,
            "count" : 2420,
            "type" : "VEC2"
        },
        {
            "bufferView" : 3,
            "componentType" : 5123,
            "count" : 4104,
            "type" : "SCALAR"
        },
        {
            "bufferView" : 4,
            "componentType" : 5126,
            "count" : 628,
            "max" : [
                0.3798593282699585,
                0.11652051657438278,
                0.46063265204429626
            ],
            "min" : [
                -0.3278782367706299,
                -0.11652051657438278,
                -0.698891282081604
            ],
            "type" : "VEC3"
        },
        {
            "bufferView" : 5,
            "componentType" : 5126,
            "count" : 628,
            "type" : "VEC3"
        },
        {
            "bufferView" : 6,
            "componentType" : 5126,
            "count" : 628,
            "type" : "VEC2"
        },
        {
            "bufferView" : 7,
            "componentType" : 5123,
            "count" : 1128,
            "type" : "SCALAR"
        }
    ],
    "bufferViews" : [
        {
            "buffer" : 0,
            "byteLength" : 29040,
            "byteOffset" : 0
        },
        {
            "buffer" : 0,
            "byteLength" : 29040,
            "byteOffset" : 29040
        },
        {
            "buffer" : 0,
            "byteLength" : 19360,
            "byteOffset" : 58080
        },
        {
            "buffer" : 0,
            "byteLength" : 8208,
            "byteOffset" : 77440
        },
        {
            "buffer" : 0,
            "byteLength" : 7536,
            "byteOffset" : 85648
        },
        {
            "buffer" : 0,
            "byteLength" : 7536,
            "byteOffset" : 93184
        },
        {
            "buffer" : 0,
            "byteLength" : 5024,
            "byteOffset" : 100720
        },
        {
            "buffer" : 0,
            "byteLength" : 2256,
            "byteOffset" : 105744
        }
    ],
    "buffers" : [
        {
            "byteLength" : 108000,
            "uri" : "data:application/octet-stream;base64,"
        }
    ]
}
