{
    "asset" : {
        "generator" : "Khronos glTF Blender I/O v1.8.19",
        "version" : "2.0"
    },
    "scene" : 0,
    "scenes" : [
        {
            "name" : "Scene",
            "nodes" : [
                0,
                1,
                2
            ]
        }
    ],
    "nodes" : [
        {
            "mesh" : 0,
            "name" : "XMLID_2_",
            "translation" : [
                0.28867030143737793,
                0,
                0.7192656397819519
            ]
        },
        {
            "mesh" : 1,
            "name" : "Curve",
            "scale" : [
                0.5425466299057007,
                1,
                0.5425466299057007
            ],
            "translation" : [
                -0.37766268849372864,
                0,
                -0.5842506885528564
            ]
        },
        {
            "mesh" : 2,
            "name" : "Curve.001",
            "scale" : [
                0.5425466299057007,
                1,
                0.5425466299057007
            ],
            "translation" : [
                0.08899247646331787,
                0,
                -0.13501489162445068
            ]
        }
    ],
    "materials" : [
        {
            "doubleSided" : true,
            "name" : "Material.002",
            "pbrMetallicRoughness" : {
                "baseColorFactor" : [
                    0.17788788676261902,
                    0.13843131065368652,
                    0.7156934142112732,
                    1
                ],
                "metallicFactor" : 0,
                "roughnessFactor" : 0.5
            }
        },
        {
            "doubleSided" : true,
            "name" : "Material.003",
            "pbrMetallicRoughness" : {
                "baseColorFactor" : [
                    0.6866854429244995,
                    0.22696569561958313,
                    0.015208590775728226,
                    1
                ],
                "metallicFactor" : 0,
                "roughnessFactor" : 0.5
            }
        }
    ],
    "meshes" : [
        {
            "name" : "XMLID_2_",
            "primitives" : [
                {
                    "attributes" : {
                        "POSITION" : 0,
                        "NORMAL" : 1,
                        "TEXCOORD_0" : 2
                    },
                    "indices" : 3,
                    "material" : 0
                }
            ]
        },
        {
            "name" : "Curve",
            "primitives" : [
                {
                    "attributes" : {
                        "POSITION" : 4,
                        "NORMAL" : 5,
                        "TEXCOORD_0" : 6
                    },
                    "indices" : 7,
                    "material" : 0
                }
            ]
        },
        {
            "name" : "Curve.001",
            "primitives" : [
                {
                    "attributes" : {
                        "POSITION" : 8,
                        "NORMAL" : 9,
                        "TEXCOORD_0" : 10
                    },
                    "indices" : 11,
                    "material" : 1
                }
            ]
        }
    ],
    "accessors" : [
        {
            "bufferView" : 0,
            "componentType" : 5126,
            "count" : 14,
            "max" : [
                0.9983890056610107,
                0.053867194801568985,
                0.3342065215110779
            ],
            "min" : [
                -1.000610113143921,
                -0.053867194801568985,
                -0.6684130430221558
            ],
            "type" : "VEC3"
        },
        {
            "bufferView" : 1,
            "componentType" : 5126,
            "count" : 14,
            "type" : "VEC3"
        },
        {
            "bufferView" : 2,
            "componentType" : 5126,
            "count" : 14,
            "type" : "VEC2"
        },
        {
            "bufferView" : 3,
            "componentType" : 5123,
            "count" : 24,
            "type" : "SCALAR"
        },
        {
            "bufferView" : 4,
            "componentType" : 5126,
            "count" : 14,
            "max" : [
                1.2322521209716797,
                0.10232672095298767,
                1.3302236795425415
            ],
            "min" : [
                -0.6161260604858398,
                -0.10232672095298767,
                -0.665111780166626
            ],
            "type" : "VEC3"
        },
        {
            "bufferView" : 5,
            "componentType" : 5126,
            "count" : 14,
            "type" : "VEC3"
        },
        {
            "bufferView" : 6,
            "componentType" : 5126,
            "count" : 14,
            "type" : "VEC2"
        },
        {
            "bufferView" : 7,
            "componentType" : 5123,
            "count" : 24,
            "type" : "SCALAR"
        },
        {
            "bufferView" : 8,
            "componentType" : 5126,
            "count" : 30,
            "max" : [
                2.208228349685669,
                0.10106821358203888,
                2.1905713081359863
            ],
            "min" : [
                -1.4762461185455322,
                -0.10106821358203888,
                -1.4931248426437378
            ],
            "type" : "VEC3"
        },
        {
            "bufferView" : 9,
            "componentType" : 5126,
            "count" : 30,
            "type" : "VEC3"
        },
        {
            "bufferView" : 10,
            "componentType" : 5126,
            "count" : 30,
            "type" : "VEC2"
        },
        {
            "bufferView" : 11,
            "componentType" : 5123,
            "count" : 48,
            "type" : "SCALAR"
        }
    ],
    "bufferViews" : [
        {
            "buffer" : 0,
            "byteLength" : 168,
            "byteOffset" : 0
        },
        {
            "buffer" : 0,
            "byteLength" : 168,
            "byteOffset" : 168
        },
        {
            "buffer" : 0,
            "byteLength" : 112,
            "byteOffset" : 336
        },
        {
            "buffer" : 0,
            "byteLength" : 48,
            "byteOffset" : 448
        },
        {
            "buffer" : 0,
            "byteLength" : 168,
            "byteOffset" : 496
        },
        {
            "buffer" : 0,
            "byteLength" : 168,
            "byteOffset" : 664
        },
        {
            "buffer" : 0,
            "byteLength" : 112,
            "byteOffset" : 832
        },
        {
            "buffer" : 0,
            "byteLength" : 48,
            "byteOffset" : 944
        },
        {
            "buffer" : 0,
            "byteLength" : 360,
            "byteOffset" : 992
        },
        {
            "buffer" : 0,
            "byteLength" : 360,
            "byteOffset" : 1352
        },
        {
            "buffer" : 0,
            "byteLength" : 240,
            "byteOffset" : 1712
        },
        {
            "buffer" : 0,
            "byteLength" : 96,
            "byteOffset" : 1952
        }
    ],
    "buffers" : [
        {
            "byteLength" : 2048,
            "uri" : "data:application/octet-stream;base64,"
        }
    ]
}
