{
    "asset" : {
        "generator" : "Khronos glTF Blender I/O v1.8.19",
        "version" : "2.0"
    },
    "scene" : 0,
    "scenes" : [
        {
            "name" : "Scene",
            "nodes" : [
                0,
                1
            ]
        }
    ],
    "nodes" : [
        {
            "mesh" : 0,
            "name" : "Curve",
            "scale" : [
                14.515487670898438,
                10,
                14.515487670898438
            ]
        },
        {
            "mesh" : 1,
            "name" : "Curve.002",
            "scale" : [
                14.515487670898438,
                2.5,
                14.515487670898438
            ]
        }
    ],
    "materials" : [
        {
            "doubleSided" : true,
            "name" : "SVGMat.003",
            "pbrMetallicRoughness" : {
                "baseColorFactor" : [
                    0.11953842639923096,
                    0.7011018991470337,
                    0.9646862745285034,
                    1
                ],
                "metallicFactor" : 0,
                "roughnessFactor" : 0.4000000059604645
            }
        },
        {
            "doubleSided" : true,
            "name" : "SVGMat.005",
            "pbrMetallicRoughness" : {
                "baseColorFactor" : [
                    0.11953842639923096,
                    0.7011018991470337,
                    0.9646862745285034,
                    1
                ],
                "metallicFactor" : 0,
                "roughnessFactor" : 0.4000000059604645
            }
        }
    ],
    "meshes" : [
        {
            "name" : "Curve.004",
            "primitives" : [
                {
                    "attributes" : {
                        "POSITION" : 0,
                        "NORMAL" : 1,
                        "TEXCOORD_0" : 2
                    },
                    "indices" : 3,
                    "material" : 0
                }
            ]
        },
        {
            "name" : "Curve.006",
            "primitives" : [
                {
                    "attributes" : {
                        "POSITION" : 4,
                        "NORMAL" : 5,
                        "TEXCOORD_0" : 6
                    },
                    "indices" : 7,
                    "material" : 1
                }
            ]
        }
    ],
    "accessors" : [
        {
            "bufferView" : 0,
            "componentType" : 5126,
            "count" : 7521,
            "max" : [
                0.06923561543226242,
                0.009999999776482582,
                0.0641646534204483
            ],
            "min" : [
                -0.06922543793916702,
                -0.009999999776482582,
                -0.0591147243976593
            ],
            "type" : "VEC3"
        },
        {
            "bufferView" : 1,
            "componentType" : 5126,
            "count" : 7521,
            "type" : "VEC3"
        },
        {
            "bufferView" : 2,
            "componentType" : 5126,
            "count" : 7521,
            "type" : "VEC2"
        },
        {
            "bufferView" : 3,
            "componentType" : 5123,
            "count" : 13524,
            "type" : "SCALAR"
        },
        {
            "bufferView" : 4,
            "componentType" : 5126,
            "count" : 240,
            "max" : [
                0.012897804379463196,
                0.03999999910593033,
                0.01289510726928711
            ],
            "min" : [
                -0.012897834181785583,
                -0.03999999910593033,
                -0.012895084917545319
            ],
            "type" : "VEC3"
        },
        {
            "bufferView" : 5,
            "componentType" : 5126,
            "count" : 240,
            "type" : "VEC3"
        },
        {
            "bufferView" : 6,
            "componentType" : 5126,
            "count" : 240,
            "type" : "VEC2"
        },
        {
            "bufferView" : 7,
            "componentType" : 5123,
            "count" : 564,
            "type" : "SCALAR"
        }
    ],
    "bufferViews" : [
        {
            "buffer" : 0,
            "byteLength" : 90252,
            "byteOffset" : 0
        },
        {
            "buffer" : 0,
            "byteLength" : 90252,
            "byteOffset" : 90252
        },
        {
            "buffer" : 0,
            "byteLength" : 60168,
            "byteOffset" : 180504
        },
        {
            "buffer" : 0,
            "byteLength" : 27048,
            "byteOffset" : 240672
        },
        {
            "buffer" : 0,
            "byteLength" : 2880,
            "byteOffset" : 267720
        },
        {
            "buffer" : 0,
            "byteLength" : 2880,
            "byteOffset" : 270600
        },
        {
            "buffer" : 0,
            "byteLength" : 1920,
            "byteOffset" : 273480
        },
        {
            "buffer" : 0,
            "byteLength" : 1128,
            "byteOffset" : 275400
        }
    ],
    "buffers" : [
        {
            "byteLength" : 276528,
            "uri" : "data:application/octet-stream;base64,"
        }
    ]
}
