{
    "asset" : {
        "generator" : "Khronos glTF Blender I/O v1.8.19",
        "version" : "2.0"
    },
    "scene" : 0,
    "scenes" : [
        {
            "name" : "Scene",
            "nodes" : [
                0
            ]
        }
    ],
    "nodes" : [
        {
            "mesh" : 0,
            "name" : "Curve"
        }
    ],
    "materials" : [
        {
            "doubleSided" : true,
            "name" : "SVGMat.001",
            "pbrMetallicRoughness" : {
                "baseColorFactor" : [
                    0.14412818849086761,
                    0.4178849756717682,
                    0.04666518419981003,
                    1
                ],
                "metallicFactor" : 0,
                "roughnessFactor" : 0.4000000059604645
            }
        }
    ],
    "meshes" : [
        {
            "name" : "Curve.001",
            "primitives" : [
                {
                    "attributes" : {
                        "POSITION" : 0,
                        "NORMAL" : 1,
                        "TEXCOORD_0" : 2
                    },
                    "indices" : 3,
                    "material" : 0
                }
            ]
        }
    ],
    "accessors" : [
        {
            "bufferView" : 0,
            "componentType" : 5126,
            "count" : 2220,
            "max" : [
                1.103992223739624,
                0.10053981095552444,
                0.7404199242591858
            ],
            "min" : [
                -0.8958405256271362,
                -0.10053981095552444,
                -1.2598680257797241
            ],
            "type" : "VEC3"
        },
        {
            "bufferView" : 1,
            "componentType" : 5126,
            "count" : 2220,
            "type" : "VEC3"
        },
        {
            "bufferView" : 2,
            "componentType" : 5126,
            "count" : 2220,
            "type" : "VEC2"
        },
        {
            "bufferView" : 3,
            "componentType" : 5123,
            "count" : 3612,
            "type" : "SCALAR"
        }
    ],
    "bufferViews" : [
        {
            "buffer" : 0,
            "byteLength" : 26640,
            "byteOffset" : 0
        },
        {
            "buffer" : 0,
            "byteLength" : 26640,
            "byteOffset" : 26640
        },
        {
            "buffer" : 0,
            "byteLength" : 17760,
            "byteOffset" : 53280
        },
        {
            "buffer" : 0,
            "byteLength" : 7224,
            "byteOffset" : 71040
        }
    ],
    "buffers" : [
        {
            "byteLength" : 78264,
            "uri" : "data:application/octet-stream;base64,"
        }
    ]
}
